<?xml version="1.0" encoding="utf-8"?>
<!-- Generator: Adobe Illustrator 12.0.0, SVG Export Plug-In  -->
<!DOCTYPE svg PUBLIC "-//W3C//DTD SVG 1.1//EN" "http://www.w3.org/Graphics/SVG/1.1/DTD/svg11.dtd" [
	<!ENTITY ns_flows "http://ns.adobe.com/Flows/1.0/">
	<!ENTITY ns_svg "http://www.w3.org/2000/svg">
	<!ENTITY ns_xlink "http://www.w3.org/1999/xlink">
]>
<svg  version="1.1" xmlns="&ns_svg;" xmlns:xlink="&ns_xlink;" xmlns:a="http://ns.adobe.com/AdobeSVGViewerExtensions/3.0/"
	 width="60" height="30" viewBox="-19.054 -4.011 60 30" enable-background="new -19.054 -4.011 60 30" xml:space="preserve">
<defs>
</defs>
<path fill="#FFFFFF" d="M9.708,0.261c-0.741,0-0.626,0.242-1.025,0.302c-0.399,0.06,0.081-0.061-1.116,0.181
	C6.371,0.986,5.948,2.615,5.891,3.219c-0.057,0.604-0.071,2.3-0.034,3.205c0.114,0.543-0.285,0.543-0.285,0.543
	C4.856,6.918,5.178,9.285,5.178,9.285c0.103,0.583-0.037,0.874,1.024,1.326c0.506,1.525,1.792,2.296,1.792,2.296
	s0.064,0.978,0.084,1.675c-0.108-0.058,0.346,1.781-2.952,2.296c-3.298,0.515-3.93,1.646-4.551,2.276
	c-0.622,0.63-0.575,3.538-0.575,3.538H21.24c0,0-0.135-2.908-0.757-3.538c-0.622-0.63-1.299-1.761-4.597-2.276
	c-3.298-0.516-2.713-2.304-2.736-2.412c0.006-0.274,0.121-1.439,0.121-1.439s1.063-0.936,1.568-2.462
	c0.796-0.532,1.099-0.606,1.23-1.219c0,0,0.269-2.318-0.586-2.318c0,0-0.356,0.061-0.242-0.483c0.114-0.543,0.076-2.239,0.019-2.843
	c-0.057-0.604,0.109-2.329-1.087-2.57c-0.817-0.161-0.912,0.083-1.311,0.023C12.463,1.094,11.988,0,11.247,0L9.708,0.261z"/>
</svg>
