<?xml version="1.0" encoding="utf-8"?>
<!-- Generator: Adobe Illustrator 12.0.0, SVG Export Plug-In  -->
<!DOCTYPE svg PUBLIC "-//W3C//DTD SVG 1.1//EN" "http://www.w3.org/Graphics/SVG/1.1/DTD/svg11.dtd" [
	<!ENTITY ns_flows "http://ns.adobe.com/Flows/1.0/">
	<!ENTITY ns_svg "http://www.w3.org/2000/svg">
	<!ENTITY ns_xlink "http://www.w3.org/1999/xlink">
]>
<svg  version="1.1" xmlns="&ns_svg;" xmlns:xlink="&ns_xlink;" xmlns:a="http://ns.adobe.com/AdobeSVGViewerExtensions/3.0/"
	 width="60" height="30" viewBox="-14.843 -3.87 60 30" enable-background="new -14.843 -3.87 60 30" xml:space="preserve">
<defs>
</defs>
<path fill="#FFFFFF" d="M22.538,22.822c0,0,0.007-1.899-0.723-3.939c-0.529-0.78-1.275-1.487-2.324-2.098
	c-0.016-0.535-0.069-1.343-0.069-1.343s-1.275-0.591-1.689-1.762c-0.87-0.347-0.755-0.569-0.839-1.017c0,0-0.264-1.815,0.323-1.778
	c0,0,0.5,0,0.407-0.417c-0.031-0.695,0.025-2.04,0.071-2.503c0.047-0.463,0.22-1.713,1.2-1.898c0.98-0.185,0.587-0.093,0.914-0.139
	c0.327-0.046,0.233-0.231,0.84-0.231l1.261-0.201c0.606,0,0.996,0.84,1.322,0.886s0.231-0.142,0.9-0.018
	c0.98,0.186,0.844,1.509,0.891,1.972c0.046,0.462,0.078,1.808-0.016,2.225c-0.093,0.417,0.198,0.371,0.198,0.371
	c0.7,0,0.654,1.778,0.654,1.778c-0.108,0.471-0.356,0.528-1.008,0.936c-0.414,1.17-1.519,1.889-1.519,1.889
	s-0.095,0.893-0.099,1.104c0.019,0.083-0.515,1.455,2.187,1.85c2.702,0.396,3.168,1.264,3.678,1.747
	c0.509,0.483,0.62,2.586,0.62,2.586S26.06,22.822,22.538,22.822z"/>
<path fill="#FFFFFF" d="M15.168,10.634c-0.541,1.527-1.907,2.465-1.907,2.465s-0.124,1.166-0.129,1.44
	c0.024,0.109-0.947,1.898,2.578,2.415s4.134,1.648,4.799,2.279c0.665,0.631,0.809,3.599,0.809,3.599H0.001
	c0,0-0.05-2.968,0.614-3.599s0.936-1.763,4.461-2.279s2.982-2.356,3.098-2.299c-0.021-0.698-0.089-1.677-0.089-1.677
	s-1.665-0.771-2.205-2.299c-1.135-0.452-0.985-0.743-1.095-1.327c0,0-0.345-2.369,0.422-2.32c0,0,0.426,0,0.305-0.544
	C5.47,5.582,5.543,3.826,5.604,3.222c0.061-0.604,0.512-2.236,1.792-2.478c1.279-0.241,0.767-0.121,1.193-0.181
	c0.426-0.06,0.305-0.302,1.097-0.302L11.33,0c0.792,0,1.299,1.095,1.726,1.156c0.427,0.061,0.528-0.185,1.401-0.023
	c1.279,0.242,1.101,1.968,1.162,2.572c0.061,0.604,0.102,2.36-0.021,2.904c-0.122,0.544,0.259,0.483,0.259,0.483
	c0.914,0,0.626,2.32,0.626,2.32C16.343,10.026,16.019,10.101,15.168,10.634z"/>
</svg>
